<svg xmlns="http://www.w3.org/2000/svg" xmlns:xlink="http://www.w3.org/1999/xlink" id="Capa_1" x="0" y="0" version="1.1" viewBox="0 0 58 58" xml:space="preserve" style="enable-background:new 0 0 58 58"><path style="fill:#28812f" d="M27.5,0c0,1.657-1.343,3-3,3s-3-1.343-3-3h-3v58h3c0-1.657,1.343-3,3-3s3,1.343,3,3h14.905	c1.157,0,2.095-0.938,2.095-2.095V2.095C44.5,0.938,43.562,0,42.405,0H27.5z M39.622,54.925c-1.862,0.449-3.496-1.186-3.047-3.047	c0.211-0.875,0.929-1.592,1.803-1.803c1.861-0.448,3.495,1.186,3.046,3.047C41.214,53.997,40.497,54.714,39.622,54.925z M39.622,7.925c-1.862,0.449-3.496-1.186-3.047-3.047c0.211-0.875,0.929-1.592,1.803-1.803c1.861-0.448,3.495,1.186,3.046,3.047	C41.214,6.997,40.497,7.714,39.622,7.925z"/><g><rect style="fill:#ecd361" width="6" height="2" x="38.5" y="10"/><rect style="fill:#ecd361" width="6" height="2" x="38.5" y="13"/><rect style="fill:#ecd361" width="6" height="2" x="38.5" y="16"/><rect style="fill:#ecd361" width="6" height="2" x="38.5" y="19"/><rect style="fill:#ecd361" width="6" height="2" x="38.5" y="22"/><rect style="fill:#ecd361" width="6" height="2" x="38.5" y="25"/><rect style="fill:#ecd361" width="6" height="2" x="38.5" y="28"/><rect style="fill:#ecd361" width="6" height="2" x="38.5" y="31"/><rect style="fill:#ecd361" width="6" height="2" x="38.5" y="34"/><rect style="fill:#ecd361" width="6" height="2" x="38.5" y="37"/><rect style="fill:#ecd361" width="6" height="2" x="38.5" y="40"/><rect style="fill:#ecd361" width="6" height="2" x="38.5" y="43"/><rect style="fill:#ecd361" width="6" height="2" x="38.5" y="46"/></g><rect style="fill:#38454f" width="10" height="6" x="22.5" y="8"/><rect style="fill:#38454f" width="10" height="6" x="22.5" y="44"/><rect style="fill:#38454f" width="10" height="6" x="22.5" y="26"/><g><rect style="fill:#ecd361" width="2" height="3" x="23.5" y="5"/><rect style="fill:#ecd361" width="2" height="3" x="26.5" y="5"/><rect style="fill:#ecd361" width="2" height="3" x="29.5" y="5"/><rect style="fill:#ecd361" width="2" height="3" x="23.5" y="14"/><rect style="fill:#ecd361" width="2" height="3" x="26.5" y="14"/><rect style="fill:#ecd361" width="2" height="3" x="29.5" y="14"/><rect style="fill:#ecd361" width="2" height="3" x="23.5" y="41"/><rect style="fill:#ecd361" width="2" height="3" x="26.5" y="41"/><rect style="fill:#ecd361" width="2" height="3" x="29.5" y="41"/><rect style="fill:#ecd361" width="2" height="3" x="23.5" y="50"/><rect style="fill:#ecd361" width="2" height="3" x="26.5" y="50"/><rect style="fill:#ecd361" width="2" height="3" x="29.5" y="50"/><rect style="fill:#ecd361" width="2" height="3" x="23.5" y="23"/><rect style="fill:#ecd361" width="2" height="3" x="26.5" y="23"/><rect style="fill:#ecd361" width="2" height="3" x="29.5" y="23"/><rect style="fill:#ecd361" width="2" height="3" x="23.5" y="32"/><rect style="fill:#ecd361" width="2" height="3" x="26.5" y="32"/><rect style="fill:#ecd361" width="2" height="3" x="29.5" y="32"/></g><polygon style="fill:#283238" points="15.5 3 15.5 55 13.5 55 13.5 58 18.5 58 18.5 0 13.5 0 13.5 3"/></svg>